<svg xmlns="http://www.w3.org/2000/svg" xmlns:xlink="http://www.w3.org/1999/xlink" width="500" zoomAndPan="magnify" viewBox="0 0 375 374.999991" height="500" preserveAspectRatio="xMidYMid meet" version="1.0"><defs><clipPath id="874facda93"><path d="M 187.730469 201.8125 L 327.980469 201.8125 L 327.980469 233.3125 L 187.730469 233.3125 Z M 187.730469 201.8125 " clip-rule="nonzero"/></clipPath><clipPath id="f6dff8fbfc"><path d="M 178 28 L 293 28 L 293 277 L 178 277 Z M 178 28 " clip-rule="nonzero"/></clipPath><clipPath id="66bc87cf1a"><path d="M 171.960938 266.816406 L 243.90625 21.394531 L 299.324219 37.640625 L 227.378906 283.0625 Z M 171.960938 266.816406 " clip-rule="nonzero"/></clipPath><clipPath id="b14ec366e6"><path d="M 171.960938 266.816406 L 243.90625 21.394531 L 299.324219 37.640625 L 227.378906 283.0625 Z M 171.960938 266.816406 " clip-rule="nonzero"/></clipPath><clipPath id="7c2bffc86f"><path d="M 235 27 L 343 27 L 343 274 L 235 274 Z M 235 27 " clip-rule="nonzero"/></clipPath><clipPath id="536ea8c44c"><path d="M 294.027344 279.761719 L 228.75 36.363281 L 283.804688 21.597656 L 349.082031 264.996094 Z M 294.027344 279.761719 " clip-rule="nonzero"/></clipPath><clipPath id="7209293e0b"><path d="M 294.027344 279.761719 L 228.75 36.363281 L 283.804688 21.597656 L 349.082031 264.996094 Z M 294.027344 279.761719 " clip-rule="nonzero"/></clipPath><clipPath id="4f80045376"><path d="M 302.203125 293.394531 L 361.011719 293.394531 L 361.011719 352.203125 L 302.203125 352.203125 Z M 302.203125 293.394531 " clip-rule="nonzero"/></clipPath><clipPath id="eaaaf95c32"><path d="M 331.605469 293.394531 C 315.367188 293.394531 302.203125 306.558594 302.203125 322.800781 C 302.203125 339.039062 315.367188 352.203125 331.605469 352.203125 C 347.84375 352.203125 361.011719 339.039062 361.011719 322.800781 C 361.011719 306.558594 347.84375 293.394531 331.605469 293.394531 Z M 331.605469 293.394531 " clip-rule="nonzero"/></clipPath><clipPath id="505785681a"><path d="M 0.203125 0.394531 L 59.011719 0.394531 L 59.011719 59.203125 L 0.203125 59.203125 Z M 0.203125 0.394531 " clip-rule="nonzero"/></clipPath><clipPath id="4668e0eda9"><path d="M 29.605469 0.394531 C 13.367188 0.394531 0.203125 13.558594 0.203125 29.800781 C 0.203125 46.039062 13.367188 59.203125 29.605469 59.203125 C 45.84375 59.203125 59.011719 46.039062 59.011719 29.800781 C 59.011719 13.558594 45.84375 0.394531 29.605469 0.394531 Z M 29.605469 0.394531 " clip-rule="nonzero"/></clipPath><clipPath id="648c9364b7"><rect x="0" width="60" y="0" height="60"/></clipPath><clipPath id="e257d444db"><path d="M 197.632812 293.394531 L 256.441406 293.394531 L 256.441406 352.203125 L 197.632812 352.203125 Z M 197.632812 293.394531 " clip-rule="nonzero"/></clipPath><clipPath id="ccebafb5ee"><path d="M 227.035156 293.394531 C 210.796875 293.394531 197.632812 306.558594 197.632812 322.800781 C 197.632812 339.039062 210.796875 352.203125 227.035156 352.203125 C 243.277344 352.203125 256.441406 339.039062 256.441406 322.800781 C 256.441406 306.558594 243.277344 293.394531 227.035156 293.394531 Z M 227.035156 293.394531 " clip-rule="nonzero"/></clipPath><clipPath id="580dc11afc"><path d="M 0.632812 0.394531 L 59.441406 0.394531 L 59.441406 59.203125 L 0.632812 59.203125 Z M 0.632812 0.394531 " clip-rule="nonzero"/></clipPath><clipPath id="1ea8f3142d"><path d="M 30.035156 0.394531 C 13.796875 0.394531 0.632812 13.558594 0.632812 29.800781 C 0.632812 46.039062 13.796875 59.203125 30.035156 59.203125 C 46.277344 59.203125 59.441406 46.039062 59.441406 29.800781 C 59.441406 13.558594 46.277344 0.394531 30.035156 0.394531 Z M 30.035156 0.394531 " clip-rule="nonzero"/></clipPath><clipPath id="e3ec8abb67"><rect x="0" width="60" y="0" height="60"/></clipPath><clipPath id="b588e50e52"><path d="M 83.125 293.394531 L 141.933594 293.394531 L 141.933594 352.203125 L 83.125 352.203125 Z M 83.125 293.394531 " clip-rule="nonzero"/></clipPath><clipPath id="add8a12761"><path d="M 112.53125 293.394531 C 96.289062 293.394531 83.125 306.558594 83.125 322.800781 C 83.125 339.039062 96.289062 352.203125 112.53125 352.203125 C 128.769531 352.203125 141.933594 339.039062 141.933594 322.800781 C 141.933594 306.558594 128.769531 293.394531 112.53125 293.394531 Z M 112.53125 293.394531 " clip-rule="nonzero"/></clipPath><clipPath id="0ee34216be"><path d="M 0.125 0.394531 L 58.933594 0.394531 L 58.933594 59.203125 L 0.125 59.203125 Z M 0.125 0.394531 " clip-rule="nonzero"/></clipPath><clipPath id="29d81fd260"><path d="M 29.53125 0.394531 C 13.289062 0.394531 0.125 13.558594 0.125 29.800781 C 0.125 46.039062 13.289062 59.203125 29.53125 59.203125 C 45.769531 59.203125 58.933594 46.039062 58.933594 29.800781 C 58.933594 13.558594 45.769531 0.394531 29.53125 0.394531 Z M 29.53125 0.394531 " clip-rule="nonzero"/></clipPath><clipPath id="5875fa01bc"><rect x="0" width="59" y="0" height="60"/></clipPath><clipPath id="bcec83df48"><path d="M 71 28 L 185 28 L 185 276 L 71 276 Z M 71 28 " clip-rule="nonzero"/></clipPath><clipPath id="28ca7764a1"><path d="M 64.59375 266.066406 L 136.332031 21.363281 L 191.746094 37.609375 L 120.011719 282.308594 Z M 64.59375 266.066406 " clip-rule="nonzero"/></clipPath><clipPath id="09650cd044"><path d="M 64.59375 266.066406 L 136.332031 21.363281 L 191.746094 37.609375 L 120.011719 282.308594 Z M 64.59375 266.066406 " clip-rule="nonzero"/></clipPath><clipPath id="1f7e4cb3be"><path d="M 126 27 L 236 27 L 236 277 L 126 277 Z M 126 27 " clip-rule="nonzero"/></clipPath><clipPath id="35216604f5"><path d="M 175.972656 21.105469 L 242.222656 268.125 L 186.445312 283.085938 L 120.195312 36.066406 Z M 175.972656 21.105469 " clip-rule="nonzero"/></clipPath><clipPath id="79df29bb82"><path d="M 175.972656 21.105469 L 242.222656 268.125 L 186.445312 283.085938 L 120.195312 36.066406 Z M 175.972656 21.105469 " clip-rule="nonzero"/></clipPath><clipPath id="12def3da27"><path d="M 19 27 L 129 27 L 129 277 L 19 277 Z M 19 27 " clip-rule="nonzero"/></clipPath><clipPath id="12c1a3c8a5"><path d="M 68.480469 21.304688 L 134.730469 268.324219 L 78.949219 283.285156 L 12.703125 36.265625 Z M 68.480469 21.304688 " clip-rule="nonzero"/></clipPath><clipPath id="af66fb3cc9"><path d="M 68.480469 21.304688 L 134.730469 268.324219 L 78.949219 283.285156 L 12.703125 36.265625 Z M 68.480469 21.304688 " clip-rule="nonzero"/></clipPath></defs><g clip-path="url(#874facda93)"><path fill="#7937b5" d="M 311.976562 233.300781 L 203.464844 233.300781 C 194.777344 233.300781 187.730469 226.238281 187.730469 217.550781 C 187.730469 208.859375 194.777344 201.816406 203.464844 201.816406 L 311.976562 201.816406 C 320.667969 201.816406 327.710938 208.859375 327.710938 217.550781 C 327.710938 226.238281 320.667969 233.300781 311.976562 233.300781 Z M 311.976562 233.300781 " fill-opacity="1" fill-rule="nonzero"/></g><g clip-path="url(#f6dff8fbfc)"><g clip-path="url(#66bc87cf1a)"><g clip-path="url(#b14ec366e6)"><path fill="#08699f" d="M 291.070312 65.09375 L 235.277344 255.414062 C 230.8125 270.652344 214.800781 279.378906 199.5625 274.910156 C 184.324219 270.441406 175.589844 254.460938 180.058594 239.222656 L 235.851562 48.902344 C 240.316406 33.664062 256.296875 24.929688 271.535156 29.398438 C 286.773438 33.867188 295.539062 49.855469 291.070312 65.09375 Z M 291.070312 65.09375 " fill-opacity="1" fill-rule="nonzero"/></g></g></g><g clip-path="url(#7c2bffc86f)"><g clip-path="url(#536ea8c44c)"><g clip-path="url(#7209293e0b)"><path fill="#a554f4" d="M 290.835938 48.707031 L 341.511719 237.660156 C 345.570312 252.789062 336.5625 268.355469 321.433594 272.414062 C 306.304688 276.46875 290.742188 267.492188 286.6875 252.363281 L 236.011719 63.410156 C 231.953125 48.28125 240.933594 32.71875 256.0625 28.664062 C 271.191406 24.605469 286.777344 33.574219 290.835938 48.707031 Z M 290.835938 48.707031 " fill-opacity="1" fill-rule="nonzero"/></g></g></g><g clip-path="url(#4f80045376)"><g clip-path="url(#eaaaf95c32)"><g transform="matrix(1, 0, 0, 1, 302, 293)"><g clip-path="url(#648c9364b7)"><g clip-path="url(#505785681a)"><g clip-path="url(#4668e0eda9)"><path fill="#36bcf4" d="M 0.203125 0.394531 L 59.011719 0.394531 L 59.011719 59.203125 L 0.203125 59.203125 Z M 0.203125 0.394531 " fill-opacity="1" fill-rule="nonzero"/></g></g></g></g></g></g><g clip-path="url(#e257d444db)"><g clip-path="url(#ccebafb5ee)"><g transform="matrix(1, 0, 0, 1, 197, 293)"><g clip-path="url(#e3ec8abb67)"><g clip-path="url(#580dc11afc)"><g clip-path="url(#1ea8f3142d)"><path fill="#facc12" d="M 0.632812 0.394531 L 59.441406 0.394531 L 59.441406 59.203125 L 0.632812 59.203125 Z M 0.632812 0.394531 " fill-opacity="1" fill-rule="nonzero"/></g></g></g></g></g></g><g clip-path="url(#b588e50e52)"><g clip-path="url(#add8a12761)"><g transform="matrix(1, 0, 0, 1, 83, 293)"><g clip-path="url(#5875fa01bc)"><g clip-path="url(#0ee34216be)"><g clip-path="url(#29d81fd260)"><path fill="#f04347" d="M 0.125 0.394531 L 58.933594 0.394531 L 58.933594 59.203125 L 0.125 59.203125 Z M 0.125 0.394531 " fill-opacity="1" fill-rule="nonzero"/></g></g></g></g></g></g><g clip-path="url(#bcec83df48)"><g clip-path="url(#28ca7764a1)"><g clip-path="url(#09650cd044)"><path fill="#08699f" d="M 183.316406 65.003906 L 127.707031 254.699219 C 123.253906 269.886719 107.296875 278.582031 92.109375 274.128906 C 76.921875 269.679688 68.214844 253.75 72.667969 238.5625 L 128.277344 48.871094 C 132.730469 33.683594 148.65625 24.976562 163.84375 29.429688 C 179.03125 33.878906 187.769531 49.816406 183.316406 65.003906 Z M 183.316406 65.003906 " fill-opacity="1" fill-rule="nonzero"/></g></g></g><g clip-path="url(#1f7e4cb3be)"><g clip-path="url(#35216604f5)"><g clip-path="url(#79df29bb82)"><path fill="#33bdf9" d="M 179.210938 255.285156 L 127.851562 63.777344 C 123.738281 48.445312 132.867188 32.667969 148.203125 28.554688 C 163.535156 24.441406 179.304688 33.542969 183.417969 48.875 L 234.777344 240.382812 C 238.890625 255.714844 229.789062 271.484375 214.457031 275.597656 C 199.121094 279.710938 183.324219 270.617188 179.210938 255.285156 Z M 179.210938 255.285156 " fill-opacity="1" fill-rule="nonzero"/></g></g></g><g clip-path="url(#12def3da27)"><g clip-path="url(#12c1a3c8a5)"><g clip-path="url(#af66fb3cc9)"><path fill="#33bdf9" d="M 71.71875 255.484375 L 20.359375 63.976562 C 16.246094 48.644531 25.375 32.867188 40.707031 28.753906 C 56.042969 24.640625 71.8125 33.742188 75.925781 49.074219 L 127.285156 240.582031 C 131.398438 255.914062 122.296875 271.683594 106.964844 275.796875 C 91.628906 279.910156 75.832031 270.816406 71.71875 255.484375 Z M 71.71875 255.484375 " fill-opacity="1" fill-rule="nonzero"/></g></g></g></svg>